<?xml version="1.0" encoding="UTF-8" standalone="no"?>
<!-- Created with Inkscape (http://www.inkscape.org/) -->

<svg
   width="181.87195mm"
   height="181.86134mm"
   viewBox="0 0 181.87196 181.86134"
   version="1.1"
   id="svg1"
   xml:space="preserve"
   xmlns:xlink="http://www.w3.org/1999/xlink"
   xmlns="http://www.w3.org/2000/svg"
   xmlns:svg="http://www.w3.org/2000/svg"
   xmlns:rdf="http://www.w3.org/1999/02/22-rdf-syntax-ns#"
   xmlns:cc="http://creativecommons.org/ns#"
   xmlns:dc="http://purl.org/dc/elements/1.1/"><title
     id="title1">default</title><defs
     id="defs1"><color-profile
       name="Black-White"
       xlink:href="file:///Library/ColorSync/Profiles/Black%20&amp;%20White.icc"
       id="color-profile2" /></defs><g
     id="layer1"
     transform="matrix(0.96750089,0,0,0.96750089,-14.575241,-43.839314)"><circle
       style="fill:#ffffff;fill-opacity:1;stroke-width:4.98711;stroke-linecap:round;stroke-miterlimit:0;paint-order:markers fill stroke"
       id="circle3"
       cx="109.04671"
       cy="139.30054"
       r="87.104393" /><path
       id="path2"
       style="fill:#000000;stroke-width:5.29167;stroke-linecap:round;stroke-miterlimit:0;paint-order:markers fill stroke"
       d="M 106.19727,45.349609 C 86.310711,45.934217 66.558967,53.05932 50.92478,65.441493 45.12397,69.994067 39.870998,75.258902 35.33515,81.000322 25.418848,93.510538 18.798361,108.5117 16.274011,124.27687 c -2.196823,13.57904 -1.408905,27.69469 2.434426,40.97441 5.188441,18.06969 15.942625,34.59347 30.51721,46.53842 13.306465,10.99462 29.73901,18.2479 46.789028,20.59301 14.048635,1.96367 28.487955,0.69823 42.002905,-3.66201 19.08645,-6.15367 36.08808,-18.63549 47.69471,-35.03963 9.09757,-12.79841 14.91067,-28.02478 16.70865,-43.63724 2.54677,-21.56656 -2.75559,-43.93812 -14.69,-62.163443 -7.45508,-11.401161 -17.3829,-21.108043 -28.96866,-28.334472 -12.19194,-7.65459 -26.27032,-12.398653 -40.62769,-13.787818 -3.97227,-0.397079 -7.92828,-0.51619 -11.93732,-0.408488 z m 2.85742,8.435547 c 14.72207,0.06248 29.445,3.860552 42.23227,11.189744 14.73074,8.337351 26.86703,21.168099 34.34795,36.35352 6.94499,13.93088 9.93798,29.78338 8.58913,45.28942 -1.45534,17.55081 -8.57385,34.55337 -19.96931,47.97136 -11.70855,13.88315 -27.9782,23.82253 -45.66388,27.94033 -16.83338,3.98272 -34.870919,2.685 -50.943244,-3.72194 C 62.73029,212.96014 49.54858,202.7951 40.107958,189.84775 30.831202,177.2433 25.128933,162.04562 23.85806,146.44513 22.527788,130.88193 25.580846,114.97564 32.609163,101.02394 39.416358,87.352355 49.994085,75.603185 62.852375,67.366135 75.189704,59.420814 89.601994,54.750464 104.25453,53.943811 c 1.59806,-0.09602 3.19912,-0.144073 4.80016,-0.158655 z" /><path
       id="path1"
       style="fill:#000000;stroke-width:0.954113"
       d="m 84.193426,98.541631 c -5.587679,0.08251 -11.187749,-0.06677 -16.765741,0.282145 -5.299304,0.889999 -10.688045,2.581374 -14.814409,6.157964 -4.666765,4.24706 -8.871143,8.97652 -12.926113,13.80082 -2.1023,2.57547 -4.118779,5.58504 -4.10686,9.04025 0.02217,2.75254 1.763692,5.26865 4.13388,6.5774 2.105504,1.29626 4.609591,1.72369 7.050706,1.67904 7.196432,0.19357 14.396891,0.10027 21.595106,0.15717 1.441485,0.004 2.882969,0.007 4.324455,0.0107 0.767688,2.27384 1.696936,4.60388 3.519066,6.24944 2.51796,2.51423 5.867307,4.34009 9.4716,4.50899 3.182514,0.2271 6.378544,0.16494 9.567359,0.2197 1.632392,-0.0764 3.499264,0.0841 4.803745,-1.09599 1.04852,-0.8332 1.44395,-2.19605 1.40179,-3.49099 -0.0191,-0.56729 -0.079,-1.17229 0.69514,-0.94391 2.38632,-0.0662 4.77397,-0.0465 7.16094,-0.0599 1.49443,-0.93661 3.04835,-2.417 2.89216,-4.33822 -0.0471,-2.26478 -2.20447,-4.26955 -4.4899,-3.96515 -2.06469,-0.0603 -4.13164,0.0151 -6.19541,-0.0786 -0.0328,-0.86376 3.7e-4,-1.72826 0.0131,-2.59213 2.73566,-0.0919 5.50812,0.0589 8.21059,-0.40623 2.37198,-0.96984 3.29765,-4.42505 1.50758,-6.34055 -0.81248,-1.17503 -2.29017,-1.7037 -3.6793,-1.59229 -2.02617,-0.1228 -4.05667,-0.13364 -6.08546,-0.18085 -0.006,-1.63573 -0.15618,-3.61662 -1.674126,-4.59639 -1.672669,-1.06968 -3.736623,-0.58876 -5.602833,-0.72044 -3.280174,0.0119 -6.577825,-0.10945 -9.843391,0.22221 -4.539846,0.86053 -8.68034,3.84291 -10.682492,8.0434 -0.436086,0.8597 -0.789171,1.76148 -1.059042,2.68644 -9.12488,-0.12508 -18.254485,0.0247 -27.376913,-0.25431 -0.297507,-0.0794 -1.222754,0.0228 -1.063691,-0.41431 0.964554,-2.07672 2.679489,-3.66829 4.092545,-5.43486 3.272788,-3.75446 6.528139,-7.57287 10.34359,-10.79187 2.800408,-1.98642 6.095612,-3.05568 9.466615,-3.64044 2.253326,-0.268 4.690298,-0.11541 7.016289,-0.20931 13.820504,-0.12495 27.643249,-0.12616 41.462889,0.0695 2.88181,0.0346 5.81332,0.91158 8.11466,2.6733 2.38594,2.18121 4.50758,4.66105 6.65227,7.0593 2.98675,3.3483 5.84232,6.83069 9.11887,9.90466 2.47325,2.24559 5.48914,3.89874 8.75899,4.62737 3.50531,0.85259 7.02397,1.65146 10.51,2.58221 5.78204,1.48208 11.61298,2.79039 17.35693,4.4097 1.62713,0.63977 2.94819,2.29 2.7423,4.10219 0.11016,4.0107 0.18756,8.06447 -0.16895,12.03381 -0.35293,1.41105 -1.74625,2.2602 -3.1229,2.40928 -1.71179,0.3085 -3.79064,0.3905 -4.87338,1.97739 -1.21434,1.76587 -0.60717,4.0437 -1.34368,5.97036 -0.95431,3.03724 -3.06883,5.60622 -5.79538,7.17849 -4.4056,2.62957 -10.56979,1.84708 -14.31234,-1.72026 -2.5756,-2.40728 -4.07271,-5.98297 -4.00773,-9.4421 -0.19825,-1.03978 -0.61597,-2.15357 -1.45027,-2.82917 -1.50078,-0.89343 -3.32622,-0.60153 -4.99063,-0.73265 -10.92496,-0.19751 -21.85229,-0.0646 -32.77832,-0.10528 -9.824378,5.3e-4 -19.648749,9.6e-4 -29.473121,0.002 -1.743311,0.77036 -3.020114,2.58032 -2.924497,4.51781 -0.137584,5.58436 -4.569247,10.738 -10.085661,11.6692 -5.412475,1.08724 -11.292953,-2.06563 -13.456264,-7.13208 -0.852433,-1.81249 -1.01572,-3.83377 -1.139466,-5.80127 -0.353986,-2.01073 -2.339367,-3.50003 -4.28605,-3.53506 -2.236678,-0.28379 -4.866699,-1.47179 -5.637087,-3.8444 -0.452375,-1.69623 -0.310829,-3.47901 -0.412639,-5.21648 -0.07763,-3.85442 0.09208,-7.71829 -0.138742,-11.56678 -0.169131,-1.86213 -1.912079,-3.25545 -3.727421,-3.30946 -1.847463,-0.15375 -3.78549,1.06173 -4.270936,2.8777 -0.142011,1.29125 0.01882,2.59874 -0.04128,3.89734 0.03619,4.65491 -0.118538,9.32086 0.162188,13.96783 0.667182,4.38209 3.753697,8.26186 7.809735,10.01698 0.812931,0.41008 1.744287,0.64014 2.542219,1.00956 1.006955,6.20597 5.054932,11.83378 10.628432,14.75696 3.087377,1.70174 6.63281,2.5917 10.163276,2.35664 2.778194,-0.0268 5.581108,-0.47912 8.101373,-1.69143 5.902342,-2.6723 10.412875,-8.25051 11.731218,-14.60036 10.703473,-0.20101 21.409723,-0.0881 32.114443,-0.12014 7.88741,-9e-5 15.7752,-6.5e-4 23.66198,0.11077 0.89834,4.23788 3.23054,8.13824 6.38951,11.07932 3.78891,3.37962 8.84114,5.46288 13.95804,5.22381 2.63977,0.0236 5.31864,-0.31751 7.74098,-1.41935 6.40183,-2.59914 11.31297,-8.60598 12.49291,-15.42606 4.39004,-0.90748 8.12967,-4.53522 9.01936,-8.95786 0.60763,-2.82781 0.31241,-5.74128 0.38485,-8.60969 -0.0537,-2.65301 0.0229,-5.32787 -0.3421,-7.95986 -0.75825,-3.61811 -3.3634,-6.73646 -6.62642,-8.40237 -2.97533,-1.42675 -6.28328,-1.88214 -9.43295,-2.78013 -7.30912,-1.84719 -14.66606,-3.53574 -21.94289,-5.476 -2.29672,-0.75157 -4.19941,-2.34272 -5.73458,-4.16844 -4.06772,-4.38735 -7.85168,-9.02958 -12.01488,-13.32688 -2.49847,-2.5272 -5.51334,-4.62942 -8.96765,-5.591947 -2.7721,-0.906811 -5.70474,-1.123093 -8.60426,-1.08079 -10.1374,-0.177986 -20.277018,-0.123569 -30.415466,-0.126395 z m 8.782675,26.523199 c 0.06469,4.55764 0.124098,9.11765 0.04472,13.67622 -2.620294,0.0245 -5.271598,0.062 -7.86184,-0.33772 -2.429073,-0.79826 -4.590218,-2.98474 -4.598382,-5.65943 -0.165594,-1.75355 0.100212,-3.6372 1.284232,-5.01515 1.341318,-1.7666 3.615689,-2.63377 5.796838,-2.51957 1.776512,-0.0956 3.555359,-0.14242 5.334429,-0.14435 z" /></g><metadata
     id="metadata1"><rdf:RDF><cc:Work
         rdf:about=""><dc:title>default</dc:title></cc:Work></rdf:RDF></metadata></svg>
